<svg width="512" height="512" viewBox="0 0 512 512" fill="none" xmlns="http://www.w3.org/2000/svg">
<rect width="512" height="512" fill="#3C3C3C"/>
<g filter="url(#filter0_d)">
<path d="M42.24 378.88H436.48V394.88C436.48 422.4 436.48 422.4 411.439 422.4H67.9234C42.24 422.4 42.24 422.4 42.24 397.44V378.88Z" fill="#199861"/>
<path fill-rule="evenodd" clip-rule="evenodd" d="M58.5 364H167C169 317 205 240.5 311 243.5C311 215.5 317 200.5 335 182.5C336.751 179.783 337.126 178.253 336 175.5L354.5 157.5C361.167 161 377.5 164.7 389.5 151.5C401.5 138.3 392.167 121.667 386 115C384.032 113.31 379.679 110.52 376 110.5C375.833 108.667 375.1 104.5 373.5 102.5C371.5 100 354.5 80.5 335 94.5C323.279 102.915 323 121.5 326.5 126L309 145C305.717 143.905 304.092 144.2 301.5 146C282 167 255.7 190.4 202.5 172C154.827 165.833 56.032 182.5 42.24 298.5C42.4933 313.5 46.1 347.6 58.5 364ZM317 151.5L330 165.5L354 144C363 151.5 374.5 153 382 142.5C388 134.1 380.5 124.667 376 121C372.796 118.636 370.762 117.959 366.5 118.5C367.198 112.919 366.751 110.531 364.5 107.5C361.167 102.667 351.9 94.9 341.5 102.5C331.1 110.1 335.833 123.667 339.5 129.5L317 151.5Z" fill="#199861"/>
<path fill-rule="evenodd" clip-rule="evenodd" d="M183.5 364H414.5C414.333 356.167 412.8 338.2 408 329C402 317.5 402.52 283 419.5 266C421.157 262.325 421.058 260.487 419.5 257.5L429 248C434.5 251.833 448.7 256.5 461.5 244.5C474.3 232.5 470.5 207.5 451 201.5C445.4 179.1 424.333 179.167 414.5 182C397 190 397 210.5 401 217.5L391 228.5C388.184 227.211 386.644 227.098 384 228.5C375.333 239.167 351.534 263.389 326.5 260.5C300.5 257.5 198 253.5 183.5 364ZM399.5 235L413.5 249L428 235C435.167 241.333 452 246.321 456.5 232.5C462.1 215.3 448.833 210 441.5 209.5C441.245 201.5 434 187.497 420.5 191.5C404 196.392 409.755 212.5 414.5 220L399.5 235Z" fill="#199861"/>
</g>
<defs>
<filter id="filter0_d" x="26.24" y="73.4862" width="458.715" height="364.914" filterUnits="userSpaceOnUse" color-interpolation-filters="sRGB">
<feFlood flood-opacity="0" result="BackgroundImageFix"/>
<feColorMatrix in="SourceAlpha" type="matrix" values="0 0 0 0 0 0 0 0 0 0 0 0 0 0 0 0 0 0 127 0"/>
<feOffset/>
<feGaussianBlur stdDeviation="8"/>
<feColorMatrix type="matrix" values="0 0 0 0 0 0 0 0 0 0 0 0 0 0 0 0 0 0 0.25 0"/>
<feBlend mode="normal" in2="BackgroundImageFix" result="effect1_dropShadow"/>
<feBlend mode="normal" in="SourceGraphic" in2="effect1_dropShadow" result="shape"/>
</filter>
</defs>
</svg>
